<?xml version="1.0" encoding="utf-8"?>
<!-- Generator: Adobe Illustrator 24.0.0, SVG Export Plug-In . SVG Version: 6.00 Build 0)  -->
<svg version="1.1" xmlns="http://www.w3.org/2000/svg" xmlns:xlink="http://www.w3.org/1999/xlink" x="0px" y="0px"
	 viewBox="0 0 256 256" style="enable-background:new 0 0 256 256;" xml:space="preserve">
<style type="text/css">
	.st0{fill:#F98FA6;}
	.st1{fill:#FC657E;}
	.st2{fill:#DAE6F1;}
	.st3{fill:#5290DB;}
	.st4{fill:#FCDD86;}
	.st5{fill:#F5C84C;}
	.st6{fill:#87D147;}
	.st7{fill:#70D6F9;}
	.st8{fill:#EDF4FC;}
	.st9{fill:#9BE5F9;}
	.st10{fill:#B2E26D;}
	.st11{fill:#F9C1A8;}
	.st12{fill:#414344;}
	.st13{fill:#E1FBFF;}
	.st14{fill:#FFE3EC;}
	.st15{fill:#FCBECF;}
	.st16{fill:#EF4460;}
	.st17{fill:#80C2F9;}
	.st18{fill:#3A70BF;}
	.st19{fill:#FCA265;}
	.st20{fill:#5B5D60;}
	.st21{fill:#818182;}
	.st22{fill:#C7D7E5;}
	.st23{fill:#F9D0B4;}
	.st24{fill:#AA6F59;}
	.st25{fill:#D1856D;}
	.st26{fill:#FCC29A;}
	.st27{fill:#29589F;}
	.st28{fill:#F7B386;}
	.st29{fill:#FC8C48;}
	.st30{fill:#FFF0CC;}
	.st31{fill:#57AF12;}
	.st32{fill:#3CAADC;}
	.st33{fill:#EDB311;}
	.st34{fill:#231F20;}
</style>
<g id="Layer_1">
</g>
<g id="Layer_2">
</g>
<g id="Layer_3">
</g>
<g id="Layer_4">
</g>
<g id="Layer_5">
</g>
<g id="Layer_6">
</g>
<g id="Layer_7">
</g>
<g id="Layer_8">
</g>
<g id="Layer_9">
</g>
<g id="Layer_10">
</g>
<g id="Layer_11">
</g>
<g id="Layer_12">
</g>
<g id="Layer_13">
</g>
<g id="Layer_14">
</g>
<g id="Layer_15">
</g>
<g id="Layer_16">
</g>
<g id="Layer_17">
</g>
<g id="Layer_18">
</g>
<g id="Layer_19">
</g>
<g id="Layer_20">
</g>
<g id="Layer_21">
</g>
<g id="Layer_22">
</g>
<g id="Layer_23">
</g>
<g id="Layer_24">
</g>
<g id="Layer_25">
	<g>
		<g>
			<g>
				<path class="st24" d="M119.194,164.295h-17.969c-2.331,0-4.239,1.907-4.239,4.238v8.217c0,1.356,0.657,2.555,1.656,3.333
					c0.15-0.007,0.298-0.023,0.451-0.023h44.224L119.194,164.295z"/>
			</g>
		</g>
		<g>
			<g>
				<path class="st24" d="M229.51,164.295h-17.969l-24.122,15.765h44.224c0.152,0,0.3,0.016,0.451,0.023
					c0.999-0.777,1.656-1.976,1.656-3.333v-8.217C233.749,166.202,231.841,164.295,229.51,164.295z"/>
			</g>
		</g>
		<g>
			<g>
				<path class="st26" d="M195.306,88.138h-59.877c-25.473,0-46.122,20.65-46.122,46.122v0c0,5.404,4.381,9.786,9.786,9.786h132.55
					c5.404,0,9.786-4.381,9.786-9.786v0C241.428,108.788,220.778,88.138,195.306,88.138z"/>
			</g>
		</g>
		<g>
			<g>
				<path class="st10" d="M233.421,143.876c-0.578,0.106-1.171,0.169-1.779,0.169H99.092c-0.608,0-1.202-0.063-1.779-0.169
					c-0.185,0.708-0.302,1.442-0.323,2.197c-0.158,5.702,4.418,10.375,10.085,10.375c2.52,0,4.823-0.925,6.591-2.453
					c0.992-0.858,2.48-0.858,3.473,0c1.768,1.528,4.071,2.454,6.591,2.454c2.52,0,4.823-0.925,6.591-2.453
					c0.992-0.858,2.48-0.858,3.472,0c1.768,1.528,4.071,2.453,6.591,2.453s4.824-0.925,6.591-2.453c0.992-0.858,2.48-0.858,3.472,0
					c1.768,1.528,4.071,2.453,6.591,2.453s4.823-0.925,6.591-2.453c0.992-0.858,2.48-0.858,3.473,0
					c1.768,1.528,4.071,2.453,6.591,2.453c2.52,0,4.823-0.925,6.591-2.453c0.992-0.858,2.48-0.858,3.473,0
					c1.768,1.528,4.071,2.453,6.591,2.453c2.52,0,4.823-0.925,6.591-2.453c0.992-0.858,2.48-0.858,3.472,0
					c1.768,1.528,4.071,2.453,6.591,2.453s4.823-0.925,6.591-2.453c0.992-0.858,2.48-0.858,3.473,0
					c1.768,1.528,4.071,2.453,6.591,2.453c5.667,0,10.243-4.672,10.085-10.375C233.724,145.318,233.607,144.585,233.421,143.876z"/>
			</g>
		</g>
		<g>
			<g>
				<path class="st5" d="M217.068,153.995c-0.992-0.858-2.48-0.858-3.473,0c-1.768,1.528-4.071,2.453-6.591,2.453
					s-4.824-0.925-6.591-2.453c-0.992-0.858-2.48-0.858-3.472,0c-1.768,1.528-4.071,2.453-6.591,2.453
					c-2.521,0-4.824-0.925-6.591-2.453c-0.992-0.858-2.48-0.858-3.473,0c-1.768,1.528-4.071,2.453-6.591,2.453
					c-2.52,0-4.824-0.925-6.591-2.453c-0.992-0.858-2.48-0.858-3.473,0c-1.768,1.528-4.071,2.453-6.591,2.453
					s-4.824-0.925-6.591-2.453c-0.992-0.858-2.48-0.858-3.472,0c-1.768,1.528-4.071,2.453-6.591,2.453s-4.824-0.925-6.591-2.453
					c-0.992-0.858-2.48-0.858-3.472,0c-1.768,1.528-4.071,2.453-6.591,2.453c-2.52,0-4.824-0.925-6.591-2.454
					c-0.992-0.858-2.48-0.858-3.473,0c-1.743,1.507-4.007,2.423-6.486,2.449l48.215,31.511c6.059,3.96,13.887,3.96,19.945,0
					l48.214-31.511C221.076,156.418,218.811,155.502,217.068,153.995z"/>
			</g>
		</g>
		<g>
			<g>
				<path class="st26" d="M155.974,214.812H23.424c-5.404,0-9.785,4.381-9.785,9.786v0c0,0.065,0,0.129,0,0.193
					c0.041,9.989,8.364,17.975,18.353,17.975h115.415c9.989,0,18.312-7.986,18.353-17.975c0-0.064,0-0.129,0-0.193v0
					C165.76,219.193,161.379,214.812,155.974,214.812z"/>
			</g>
		</g>
		<g>
			<g>
				<path class="st1" d="M136.193,195.823H43.206c-10.798,0-19.706,8.426-20.518,19.025c0.244-0.018,0.488-0.037,0.737-0.037h132.55
					c0.249,0,0.493,0.019,0.737,0.037C155.899,204.25,146.991,195.823,136.193,195.823z"/>
			</g>
		</g>
		<g>
			<g>
				<path class="st26" d="M231.642,180.06h-44.224l-12.079,7.894c-6.059,3.96-13.887,3.96-19.945,0l-12.078-7.894H99.092
					c-5.405,0-9.786,4.381-9.786,9.786v0c0,0.064,0,0.129,0,0.193c0.008,2.03,0.374,3.97,1.01,5.784h45.875
					c8.333,0,15.523,5.028,18.752,12.191h68.129c9.989,0,18.312-7.986,18.353-17.975c0-0.064,0-0.129,0-0.193v0
					C241.428,184.442,237.047,180.06,231.642,180.06z"/>
			</g>
		</g>
		<g>
			<g>
				<path class="st8" d="M113.777,63.195h-13.411c-1.876,0-3.571,1.167-4.189,2.939c-1.642,4.71-6.131,8.114-11.382,8.114H39.578
					c-5.252,0-9.741-3.404-11.382-8.114c-0.618-1.772-2.313-2.939-4.189-2.939h-13.41c-4.7,0-8.412,3.989-8.075,8.677l8.697,120.888
					c0.41,5.695,5.149,10.106,10.859,10.106h5.677c3.777-4.307,9.305-7.042,15.451-7.042h47.112
					c-0.637-1.814-1.002-3.754-1.01-5.784c0-0.064,0-0.129,0-0.193v0c0-5.252,4.141-9.526,9.335-9.763
					c-0.999-0.777-1.656-1.976-1.656-3.333c0-0.152,0-8.766,0-8.217c0-2.331,1.907-4.238,4.239-4.238h13.978l0.179-2.491
					l-8.202-5.36c-0.035,0-0.07,0.005-0.105,0.005c-5.667,0-10.242-4.672-10.085-10.375c0.021-0.755,0.138-1.488,0.323-2.197
					c-4.554-0.838-8.006-4.82-8.006-9.616v0c0-20.247,13.052-37.434,31.196-43.639l1.349-18.749
					C122.189,67.184,118.477,63.195,113.777,63.195z"/>
			</g>
		</g>
		<g>
			<g>
				<path class="st4" d="M109.603,37.034h-8.461c-1.071,0-1.939,0.868-1.939,1.939v24.386c0.375-0.101,0.763-0.164,1.163-0.164
					h11.175V38.973C111.542,37.902,110.674,37.034,109.603,37.034z"/>
			</g>
		</g>
		<g>
			<g>
				<path class="st4" d="M97.264,48.687h-8.461c-1.071,0-1.939,0.868-1.939,1.939v23.438c4.336-0.759,7.892-3.853,9.313-7.93
					c0.486-1.394,1.642-2.403,3.025-2.775V50.626C99.203,49.555,98.335,48.687,97.264,48.687z"/>
			</g>
		</g>
		<g>
			<g>
				<path class="st4" d="M84.925,37.034h-8.461c-1.071,0-1.939,0.868-1.939,1.939v35.275h10.27c0.706,0,1.396-0.066,2.069-0.184
					V38.973C86.864,37.902,85.996,37.034,84.925,37.034z"/>
			</g>
		</g>
		<g>
			<g>
				<path class="st4" d="M72.586,18.583h-8.461c-1.071,0-1.939,0.868-1.939,1.939v53.726h12.339V20.522
					C74.525,19.451,73.657,18.583,72.586,18.583z"/>
			</g>
		</g>
		<g>
			<g>
				<path class="st4" d="M60.248,26.352h-8.461c-1.071,0-1.939,0.868-1.939,1.939v45.958h12.339V28.291
					C62.187,27.22,61.319,26.352,60.248,26.352z"/>
			</g>
		</g>
		<g>
			<g>
				<path class="st4" d="M47.909,38.005h-8.461c-1.071,0-1.939,0.868-1.939,1.939v34.12c0.673,0.118,1.363,0.184,2.069,0.184h10.27
					V39.944C49.848,38.873,48.98,38.005,47.909,38.005z"/>
			</g>
		</g>
		<g>
			<g>
				<path class="st4" d="M35.57,26.352h-8.461c-1.071,0-1.939,0.868-1.939,1.939v35.068c1.383,0.372,2.539,1.381,3.026,2.775
					c1.421,4.077,4.977,7.171,9.313,7.93V28.291C37.509,27.22,36.641,26.352,35.57,26.352z"/>
			</g>
		</g>
		<g>
			<g>
				<path class="st4" d="M23.231,38.005h-8.461c-1.071,0-1.939,0.868-1.939,1.939v23.251h11.175c0.4,0,0.789,0.063,1.163,0.164
					V39.944C25.17,38.873,24.302,38.005,23.231,38.005z"/>
			</g>
		</g>
		<g>
			<g>
				<path class="st1" d="M98.164,63.785c-0.905,0.511-1.629,1.324-1.986,2.349c-2.969,8.519-11.7,8.094-11.801,8.114v45.697
					c2.537,1.231,4.593,2.674,6.038,4.263c1.753-7.877,5.517-14.992,10.731-20.782V63.195
					C100.684,63.27,99.637,62.953,98.164,63.785z"/>
			</g>
		</g>
		<g>
			<g>
				<path class="st1" d="M101.146,164.303v-9.791c-2.589-1.886-4.252-4.968-4.156-8.438c0.021-0.755,0.138-1.488,0.323-2.197
					c-3.989-0.734-7.133-3.881-7.851-7.875c-1.347,1.218-3.062,2.334-5.085,3.316v56.505h5.941c-0.637-1.814-1.002-3.754-1.01-5.784
					c0-0.064,0-0.129,0-0.193v0c0-5.252,4.141-9.526,9.335-9.763c-0.999-0.777-1.656-1.976-1.656-3.333c0-0.152,0-8.766,0-8.217
					C96.986,166.258,98.824,164.347,101.146,164.303z"/>
			</g>
		</g>
		<g>
			<g>
				<path class="st1" d="M53.802,74.248v41.842c5.354-0.701,11.131-0.739,16.77,0V74.248H53.802z"/>
			</g>
		</g>
		<g>
			<g>
				<path class="st1" d="M62.187,143.713c-2.909,0-5.719-0.191-8.385-0.54v52.651h16.77v-52.651
					C67.906,143.522,65.095,143.713,62.187,143.713z"/>
			</g>
		</g>
		<g>
			<g>
				<path class="st1" d="M39.996,119.945V74.248c-0.1-0.033-8.795,0.51-11.801-8.114c-1.18-3.384-4.869-2.909-4.969-2.939v139.671
					h4.528c3.106-3.542,7.397-6.017,12.242-6.786v-56.762c-5.202-2.524-8.4-5.932-8.4-9.686S34.794,122.469,39.996,119.945z"/>
			</g>
		</g>
		<g>
			<g>
				<path class="st7" d="M89.307,134.26c0-3.456,0.389-6.82,1.11-10.058c-4.618-5.081-15.517-8.651-28.23-8.651
					c-16.894,0-30.59,6.304-30.59,14.081s13.696,14.081,30.59,14.081c11.91,0,22.223-3.135,27.276-7.709
					C89.36,135.438,89.307,134.856,89.307,134.26L89.307,134.26z"/>
			</g>
		</g>
		<g>
			<g>
				<g>
					<path d="M195.306,85.638h-59.877c-26.811,0-48.622,21.812-48.622,48.622c0,6.774,5.511,12.286,12.285,12.286h132.551
						c6.774,0,12.285-5.511,12.285-12.286C243.928,107.45,222.116,85.638,195.306,85.638z M231.643,141.546H99.092
						c-4.017,0-7.285-3.269-7.285-7.286c0-24.053,19.568-43.622,43.622-43.622h59.877c24.054,0,43.622,19.569,43.622,43.622
						C238.928,138.277,235.659,141.546,231.643,141.546z"/>
				</g>
			</g>
		</g>
		<g>
			<g>
				<path d="M236.016,144.006c-0.271-1.354-1.59-2.235-2.941-1.963c-1.354,0.27-2.232,1.586-1.963,2.94
					c0.079,0.393,0.123,0.782,0.134,1.159c0.058,2.07-0.704,4.026-2.145,5.507c-1.442,1.482-3.374,2.298-5.441,2.298
					c-1.82,0-3.58-0.655-4.956-1.845c-1.922-1.662-4.82-1.662-6.742,0c-1.376,1.189-3.136,1.845-4.956,1.845
					s-3.581-0.655-4.957-1.845c-1.92-1.661-4.82-1.661-6.742,0c-1.376,1.189-3.136,1.845-4.956,1.845s-3.58-0.655-4.957-1.846
					c-1.922-1.66-4.821-1.659-6.741,0.001c-1.376,1.189-3.137,1.845-4.957,1.845s-3.58-0.655-4.956-1.845
					c-1.922-1.662-4.82-1.662-6.742,0c-1.376,1.189-3.136,1.845-4.956,1.845s-3.581-0.655-4.957-1.845
					c-1.922-1.662-4.82-1.662-6.742,0c-1.376,1.189-3.136,1.845-4.956,1.845s-3.58-0.655-4.956-1.845
					c-1.922-1.662-4.82-1.662-6.742,0c-1.376,1.189-3.137,1.845-4.957,1.845s-3.58-0.655-4.956-1.845
					c-1.922-1.662-4.82-1.662-6.742,0c-1.376,1.189-3.136,1.845-4.956,1.845c-2.067,0-3.999-0.816-5.441-2.298
					c-1.44-1.481-2.202-3.437-2.145-5.51c0.01-0.38,0.057-0.778,0.139-1.182c0.274-1.354-0.601-2.673-1.954-2.947
					c-1.346-0.277-2.672,0.6-2.946,1.954c-0.139,0.687-0.219,1.374-0.236,2.04c-0.095,3.432,1.169,6.675,3.559,9.132
					c2.392,2.458,5.597,3.812,9.025,3.812c3.021,0,5.942-1.087,8.226-3.063c0.055-0.046,0.148-0.046,0.203,0
					c2.283,1.975,5.205,3.063,8.226,3.063c3.021,0,5.943-1.087,8.227-3.063c0.055-0.046,0.148-0.046,0.203,0
					c2.283,1.975,5.205,3.063,8.226,3.063s5.942-1.087,8.226-3.063c0.055-0.046,0.148-0.046,0.203,0
					c2.283,1.975,5.205,3.063,8.227,3.063c3.021,0,5.942-1.087,8.226-3.063c0.055-0.046,0.148-0.046,0.203,0
					c2.283,1.975,5.205,3.063,8.226,3.063c3.021,0,5.943-1.087,8.227-3.063c0.055-0.047,0.148-0.046,0.203,0
					c2.283,1.975,5.205,3.063,8.226,3.063s5.942-1.087,8.225-3.062c0.055-0.048,0.149-0.047,0.204-0.001
					c2.283,1.975,5.205,3.063,8.227,3.063c3.021,0,5.942-1.087,8.226-3.063c0.055-0.046,0.15-0.046,0.203,0
					c2.283,1.975,5.205,3.063,8.226,3.063c3.429,0,6.634-1.354,9.025-3.812c2.39-2.458,3.653-5.701,3.559-9.131
					C236.226,145.348,236.148,144.675,236.016,144.006z"/>
			</g>
		</g>
		<g>
			<g>
				<path d="M225.273,155.32c-0.756-1.157-2.305-1.479-3.461-0.725l-47.84,31.267c-5.228,3.417-11.982,3.417-17.21,0l-47.826-31.258
					c-1.157-0.755-2.705-0.432-3.461,0.725c-0.755,1.156-0.431,2.705,0.725,3.46l47.827,31.258c3.444,2.251,7.392,3.376,11.34,3.376
					s7.896-1.125,11.341-3.376l47.841-31.267C225.704,158.025,226.028,156.476,225.273,155.32z"/>
			</g>
		</g>
		<g>
			<g>
				<path d="M118.833,161.795h-17.608c-3.716,0-6.738,3.023-6.738,6.738v8.218c0,1.865,0.8,3.668,2.195,4.946
					c0.479,0.44,1.085,0.657,1.688,0.657c0.677,0,1.352-0.273,1.845-0.811c0.933-1.018,0.863-2.6-0.155-3.532
					c-0.214-0.196-0.572-0.62-0.572-1.259v-8.218c0-0.942,0.796-1.738,1.738-1.738h17.608c1.381,0,2.5-1.119,2.5-2.5
					S120.214,161.795,118.833,161.795z"/>
			</g>
		</g>
		<g>
			<g>
				<path d="M229.51,161.795h-17.663c-1.381,0-2.5,1.119-2.5,2.5s1.119,2.5,2.5,2.5h17.663c0.942,0,1.738,0.796,1.738,1.738v8.218
					c0,0.673-0.392,1.107-0.625,1.306c-1.051,0.896-1.178,2.474-0.282,3.524c0.495,0.581,1.197,0.879,1.904,0.879
					c0.573,0,1.149-0.196,1.62-0.597c1.515-1.29,2.383-3.154,2.383-5.113v-8.218C236.248,164.818,233.226,161.795,229.51,161.795z"
					/>
			</g>
		</g>
		<g>
			<g>
				<g>
					<path d="M155.975,212.312H23.425c-6.774,0-12.286,5.511-12.286,12.286l0.001,0.204c0.046,11.284,9.4,20.465,20.853,20.465
						h115.415c11.452,0,20.807-9.181,20.853-20.475v-0.193C168.26,217.823,162.749,212.312,155.975,212.312z M163.26,224.78
						c-0.035,8.539-7.146,15.485-15.853,15.485H31.992c-8.706,0-15.817-6.947-15.853-15.513l-0.001-0.155
						c0-4.017,3.269-7.286,7.286-7.286h132.55c4.017,0,7.285,3.269,7.285,7.286V224.78z"/>
				</g>
			</g>
		</g>
		<g>
			<g>
				<g>
					<path d="M136.193,193.323H43.206c-11.986,0-22.094,9.371-23.012,21.334c-0.056,0.726,0.227,1.439,0.741,1.955
						c0.514,0.515,1.242,0.776,1.972,0.727c0.172-0.013,0.343-0.028,0.518-0.028h132.55c0.175,0,0.346,0.015,0.553,0.03
						c0.062,0.004,0.123,0.007,0.185,0.007c0.662,0,1.3-0.263,1.771-0.735c0.514-0.516,0.778-1.23,0.722-1.957
						C158.286,202.694,148.179,193.323,136.193,193.323z M25.602,212.312c1.885-8.032,9.148-13.988,17.604-13.988h92.987
						c8.456,0,15.719,5.957,17.604,13.988H25.602z"/>
				</g>
			</g>
		</g>
		<g>
			<g>
				<path d="M135.418,191.101c-1.29-0.483-2.734,0.17-3.219,1.463l-3.363,8.968c-0.484,1.293,0.17,2.734,1.463,3.219
					c0.289,0.108,0.586,0.16,0.878,0.16c1.012,0,1.965-0.619,2.341-1.623l3.363-8.968
					C137.365,193.026,136.711,191.585,135.418,191.101z"/>
			</g>
		</g>
		<g>
			<g>
				<path d="M121.218,191.101c-1.291-0.483-2.734,0.169-3.219,1.463l-3.362,8.968c-0.484,1.292,0.17,2.733,1.463,3.218
					c0.289,0.108,0.586,0.16,0.878,0.16c1.012,0,1.965-0.619,2.341-1.623l3.362-8.968
					C123.165,193.026,122.511,191.585,121.218,191.101z"/>
			</g>
		</g>
		<g>
			<g>
				<path d="M107.019,191.101c-1.291-0.483-2.734,0.17-3.219,1.463l-3.363,8.968c-0.484,1.293,0.17,2.734,1.463,3.219
					c0.289,0.108,0.586,0.16,0.878,0.16c1.012,0,1.965-0.619,2.341-1.623l3.363-8.968
					C108.966,193.026,108.312,191.585,107.019,191.101z"/>
			</g>
		</g>
		<g>
			<g>
				<path d="M92.819,191.101c-1.291-0.483-2.734,0.17-3.219,1.463l-3.363,8.968c-0.484,1.293,0.17,2.734,1.463,3.219
					c0.289,0.108,0.586,0.16,0.878,0.16c1.012,0,1.965-0.619,2.341-1.623l3.363-8.968C94.767,193.026,94.112,191.585,92.819,191.101
					z"/>
			</g>
		</g>
		<g>
			<g>
				<path d="M78.62,191.101c-1.291-0.483-2.734,0.17-3.219,1.463l-3.363,8.968c-0.484,1.293,0.17,2.734,1.463,3.219
					c0.289,0.108,0.586,0.16,0.878,0.16c1.012,0,1.965-0.619,2.341-1.623l3.363-8.968C80.567,193.026,79.913,191.585,78.62,191.101z
					"/>
			</g>
		</g>
		<g>
			<g>
				<path d="M64.421,191.101c-1.291-0.483-2.734,0.17-3.219,1.463l-3.363,8.968c-0.484,1.293,0.17,2.734,1.463,3.219
					c0.289,0.108,0.586,0.16,0.878,0.16c1.012,0,1.965-0.619,2.341-1.623l3.363-8.968C66.368,193.026,65.714,191.585,64.421,191.101
					z"/>
			</g>
		</g>
		<g>
			<g>
				<path d="M50.221,191.101c-1.29-0.483-2.734,0.169-3.219,1.463l-3.362,8.968c-0.484,1.292,0.17,2.733,1.463,3.218
					c0.289,0.108,0.586,0.16,0.878,0.16c1.012,0,1.965-0.619,2.341-1.623l3.362-8.968C52.168,193.026,51.514,191.585,50.221,191.101
					z"/>
			</g>
		</g>
		<g>
			<g>
				<path d="M231.643,177.561h-43.351c-1.381,0-2.5,1.119-2.5,2.5s1.119,2.5,2.5,2.5h43.351c4.017,0,7.285,3.269,7.285,7.286v0.183
					c-0.036,8.539-7.147,15.485-15.854,15.485h-67.512c-1.381,0-2.5,1.119-2.5,2.5s1.119,2.5,2.5,2.5h67.512
					c11.451,0,20.806-9.18,20.854-20.475v-0.194C243.928,183.072,238.417,177.561,231.643,177.561z"/>
			</g>
		</g>
		<g>
			<g>
				<path d="M142.792,177.561h-43.7c-6.774,0-12.285,5.511-12.285,12.286v0.204c0.009,2.059,0.341,4.116,0.987,6.114
					c0.343,1.058,1.323,1.73,2.378,1.73c0.256,0,0.515-0.039,0.771-0.122c1.314-0.425,2.034-1.835,1.609-3.148
					c-0.488-1.507-0.738-3.053-0.745-4.584v-0.193c0-4.017,3.269-7.286,7.285-7.286h43.7c1.381,0,2.5-1.119,2.5-2.5
					S144.173,177.561,142.792,177.561z"/>
			</g>
		</g>
		<g>
			<g>
				<path d="M121.534,64.073c-1.998-2.147-4.825-3.378-7.757-3.378h-13.411c-2.955,0-5.587,1.855-6.549,4.616
					c-1.342,3.85-4.968,6.437-9.022,6.437H39.578c-4.055,0-7.68-2.586-9.021-6.438c-0.963-2.76-3.596-4.615-6.55-4.615h-13.41
					c-2.932,0-5.759,1.231-7.756,3.377c-1.998,2.146-3.023,5.055-2.813,7.979l8.697,120.888c0.5,6.968,6.365,12.426,13.352,12.426
					h4.892c1.381,0,2.5-1.119,2.5-2.5s-1.119-2.5-2.5-2.5h-4.892c-4.377,0-8.051-3.419-8.365-7.785L5.015,71.693
					C4.902,70.125,5.43,68.629,6.5,67.479c1.07-1.15,2.525-1.783,4.097-1.783h13.41c0.831,0,1.565,0.507,1.828,1.261
					c2.04,5.857,7.563,9.792,13.743,9.792h45.217c6.18,0,11.702-3.935,13.743-9.792c0.264-0.754,0.998-1.261,1.828-1.261h13.411
					c1.571,0,3.025,0.633,4.097,1.784c1.069,1.15,1.597,2.646,1.484,4.214l-1.323,18.402c-0.1,1.377,0.937,2.574,2.313,2.673
					c1.374,0.094,2.574-0.937,2.673-2.314l1.323-18.402C124.556,69.127,123.531,66.22,121.534,64.073z"/>
			</g>
		</g>
		<g>
			<g>
				<path d="M109.603,34.534h-8.461c-2.447,0-4.438,1.992-4.438,4.439v23.944c0,1.381,1.119,2.5,2.5,2.5s2.5-1.119,2.5-2.5V39.534
					h7.339v23.232c0,1.381,1.119,2.5,2.5,2.5s2.5-1.119,2.5-2.5V38.973C114.042,36.525,112.051,34.534,109.603,34.534z"/>
			</g>
		</g>
		<g>
			<g>
				<path d="M97.264,46.187h-8.461c-2.447,0-4.438,1.991-4.438,4.439c0,1.381,1.119,2.5,2.5,2.5c1.188,0,2.183-0.829,2.437-1.939
					h7.466c0.254,1.11,1.249,1.939,2.437,1.939c1.381,0,2.5-1.119,2.5-2.5C101.703,48.178,99.712,46.187,97.264,46.187z"/>
			</g>
		</g>
		<g>
			<g>
				<path d="M84.925,34.534h-8.46c-2.448,0-4.439,1.992-4.439,4.439c0,1.381,1.119,2.5,2.5,2.5c1.188,0,2.183-0.829,2.437-1.939
					h7.402v34.07c0,1.381,1.119,2.5,2.5,2.5s2.5-1.119,2.5-2.5v-34.63C89.364,36.525,87.373,34.534,84.925,34.534z"/>
			</g>
		</g>
		<g>
			<g>
				<path d="M72.586,16.083h-8.46c-2.448,0-4.439,1.991-4.439,4.439V73.5c0,1.381,1.119,2.5,2.5,2.5s2.5-1.119,2.5-2.5V21.083h7.339
					v52.636c0,1.381,1.119,2.5,2.5,2.5s2.5-1.119,2.5-2.5V20.522C77.025,18.074,75.034,16.083,72.586,16.083z"/>
			</g>
		</g>
		<g>
			<g>
				<path d="M60.248,23.852h-8.461c-2.448,0-4.439,1.991-4.439,4.439V73.5c0,1.381,1.119,2.5,2.5,2.5s2.5-1.119,2.5-2.5V28.852
					h7.402c0.254,1.11,1.249,1.939,2.437,1.939c1.381,0,2.5-1.119,2.5-2.5C64.687,25.843,62.695,23.852,60.248,23.852z"/>
			</g>
		</g>
		<g>
			<g>
				<path d="M47.909,35.505h-8.461c-2.418,0-4.367,1.893-4.438,4.309c-0.04,1.38,1.047,2.531,2.427,2.571
					c1.157,0.015,2.213-0.771,2.495-1.88h7.479c0.254,1.11,1.249,1.939,2.437,1.939c1.381,0,2.5-1.119,2.5-2.5
					C52.348,37.496,50.356,35.505,47.909,35.505z"/>
			</g>
		</g>
		<g>
			<g>
				<path d="M35.57,23.852h-8.461c-2.448,0-4.439,1.991-4.439,4.439v34.631c0,1.381,1.119,2.5,2.5,2.5s2.5-1.119,2.5-2.5v-34.07
					h7.339v44.837c0,1.381,1.119,2.5,2.5,2.5s2.5-1.119,2.5-2.5V28.291C40.009,25.843,38.018,23.852,35.57,23.852z"/>
			</g>
		</g>
		<g>
			<g>
				<path d="M23.231,35.505h-8.461c-2.447,0-4.438,1.991-4.438,4.439v22.431c0,1.381,1.119,2.5,2.5,2.5s2.5-1.119,2.5-2.5v-21.87
					h7.401c0.254,1.11,1.249,1.939,2.437,1.939c1.381,0,2.5-1.119,2.5-2.5C27.67,37.496,25.679,35.505,23.231,35.505z"/>
			</g>
		</g>
		<g>
			<g>
				<path d="M84.377,72.667c-1.381,0-2.5,1.119-2.5,2.5v44.114c0,1.381,1.119,2.5,2.5,2.5s2.5-1.119,2.5-2.5V75.167
					C86.877,73.786,85.758,72.667,84.377,72.667z"/>
			</g>
		</g>
		<g>
			<g>
				<path d="M101.146,61.542c-1.381,0-2.5,1.119-2.5,2.5v38.395c0,1.381,1.119,2.5,2.5,2.5s2.5-1.119,2.5-2.5V64.042
					C103.646,62.662,102.527,61.542,101.146,61.542z"/>
			</g>
		</g>
		<g>
			<g>
				<path d="M101.146,152.938c-1.381,0-2.5,1.119-2.5,2.5v8.103c0,1.381,1.119,2.5,2.5,2.5s2.5-1.119,2.5-2.5v-8.103
					C103.646,154.058,102.527,152.938,101.146,152.938z"/>
			</g>
		</g>
		<g>
			<g>
				<path d="M84.377,137.583c-1.381,0-2.5,1.119-2.5,2.5v55.042c0,1.381,1.119,2.5,2.5,2.5s2.5-1.119,2.5-2.5v-55.042
					C86.877,138.703,85.758,137.583,84.377,137.583z"/>
			</g>
		</g>
		<g>
			<g>
				<path d="M53.802,72.375c-1.381,0-2.5,1.119-2.5,2.5v40.676c0,1.381,1.119,2.5,2.5,2.5s2.5-1.119,2.5-2.5V74.875
					C56.302,73.495,55.183,72.375,53.802,72.375z"/>
			</g>
		</g>
		<g>
			<g>
				<path d="M70.571,72.313c-1.381,0-2.5,1.119-2.5,2.5v40.437c0,1.381,1.119,2.5,2.5,2.5s2.5-1.119,2.5-2.5V74.813
					C73.071,73.433,71.952,72.313,70.571,72.313z"/>
			</g>
		</g>
		<g>
			<g>
				<path d="M53.802,141.667c-1.381,0-2.5,1.119-2.5,2.5v51.083c0,1.381,1.119,2.5,2.5,2.5s2.5-1.119,2.5-2.5v-51.083
					C56.302,142.786,55.183,141.667,53.802,141.667z"/>
			</g>
		</g>
		<g>
			<g>
				<path d="M70.571,141.213c-1.381,0-2.5,1.119-2.5,2.5v51.443c0,1.381,1.119,2.5,2.5,2.5s2.5-1.119,2.5-2.5v-51.443
					C73.071,142.332,71.952,141.213,70.571,141.213z"/>
			</g>
		</g>
		<g>
			<g>
				<path d="M39.996,138c-1.381,0-2.5,1.119-2.5,2.5v55.031c0,1.381,1.119,2.5,2.5,2.5s2.5-1.119,2.5-2.5V140.5
					C42.496,139.119,41.377,138,39.996,138z"/>
			</g>
		</g>
		<g>
			<g>
				<path d="M39.996,72.229c-1.381,0-2.5,1.119-2.5,2.5v44.208c0,1.381,1.119,2.5,2.5,2.5s2.5-1.119,2.5-2.5V74.729
					C42.496,73.349,41.377,72.229,39.996,72.229z"/>
			</g>
		</g>
		<g>
			<g>
				<path d="M23.227,61.125c-1.381,0-2.5,1.119-2.5,2.5v138.938c0,1.381,1.119,2.5,2.5,2.5s2.5-1.119,2.5-2.5V63.625
					C25.727,62.244,24.607,61.125,23.227,61.125z"/>
			</g>
		</g>
		<g>
			<g>
				<path d="M62.187,118.051c11.196,0,21.689,3.034,26.112,7.55c0.968,0.986,2.55,1.003,3.535,0.037
					c0.986-0.966,1.003-2.549,0.037-3.536c-5.468-5.583-16.843-9.051-29.685-9.051c-18.555,0-33.09,7.283-33.09,16.581
					s14.535,16.581,33.09,16.581c11.73,0,22.627-3.029,28.438-7.906c1.058-0.888,1.195-2.464,0.308-3.522
					c-0.887-1.058-2.464-1.194-3.522-0.308c-4.95,4.155-14.616,6.736-25.224,6.736c-16.554,0-28.09-6.104-28.09-11.581
					S45.633,118.051,62.187,118.051z"/>
			</g>
		</g>
		<g>
			<g>
				<path class="st5" d="M138.983,31.371c-4.498-0.838-8.043-4.31-8.898-8.716c-0.043-0.221-0.352-0.221-0.395,0
					c-0.855,4.406-4.4,7.879-8.898,8.716c-0.226,0.042-0.226,0.345,0,0.387c4.498,0.838,8.042,4.31,8.898,8.717
					c0.043,0.221,0.352,0.221,0.395,0c0.855-4.406,4.4-7.879,8.898-8.717C139.208,31.716,139.208,31.413,138.983,31.371z"/>
			</g>
		</g>
		<g>
			<g>
				<path class="st7" d="M255.844,95.48c-4.126-0.768-7.379-3.955-8.163-7.997c-0.04-0.203-0.323-0.203-0.362,0
					c-0.784,4.043-4.037,7.229-8.163,7.997c-0.207,0.039-0.207,0.316,0,0.355c4.127,0.769,7.379,3.955,8.163,7.997
					c0.04,0.203,0.323,0.203,0.362,0c0.784-4.043,4.037-7.229,8.163-7.997C256.052,95.796,256.052,95.519,255.844,95.48z"/>
			</g>
		</g>
		<g>
			<g>
				<path class="st10" d="M193.694,229.976h-2.329v-2.33c0-1.744-1.413-3.157-3.157-3.157s-3.157,1.413-3.157,3.157v2.33h-2.33
					c-1.744,0-3.157,1.413-3.157,3.157s1.413,3.157,3.157,3.157h2.33v2.33c0,1.744,1.413,3.157,3.157,3.157s3.157-1.413,3.157-3.157
					v-2.33h2.329c1.744,0,3.157-1.413,3.157-3.157S195.438,229.976,193.694,229.976z"/>
			</g>
		</g>
		<g>
			<g>
				<path class="st1" d="M108.999,10.734c-1.865,0-3.377,1.512-3.377,3.377s1.512,3.377,3.377,3.377
					c1.865,0,3.377-1.512,3.377-3.377S110.864,10.734,108.999,10.734z"/>
			</g>
		</g>
		<g>
			<g>
				<path class="st5" d="M206.999,217.734c-1.865,0-3.377,1.512-3.377,3.377s1.512,3.377,3.377,3.377
					c1.865,0,3.377-1.512,3.377-3.377S208.864,217.734,206.999,217.734z"/>
			</g>
		</g>
	</g>
</g>
<g id="Layer_26">
</g>
<g id="Layer_27">
</g>
<g id="Layer_28">
</g>
<g id="Layer_29">
</g>
<g id="Layer_30">
</g>
<g id="Layer_31">
</g>
<g id="Layer_32">
</g>
<g id="Layer_33">
</g>
<g id="Layer_34">
</g>
<g id="Layer_35">
</g>
<g id="Layer_36">
</g>
<g id="Layer_37">
</g>
<g id="Layer_38">
</g>
<g id="Layer_39">
</g>
<g id="Layer_40">
</g>
<g id="Layer_41">
</g>
<g id="Layer_42">
</g>
<g id="Layer_43">
</g>
<g id="Layer_44">
</g>
<g id="Layer_45">
</g>
<g id="Layer_46">
</g>
<g id="Layer_47">
</g>
<g id="Layer_48">
</g>
<g id="Layer_49">
</g>
<g id="Layer_50">
</g>
<g id="Layer_51">
</g>
<g id="Layer_52">
</g>
<g id="Layer_53">
</g>
<g id="Layer_54">
</g>
<g id="Layer_55">
</g>
<g id="Layer_56">
</g>
<g id="Layer_57">
</g>
<g id="Layer_58">
</g>
<g id="Layer_59">
</g>
<g id="Layer_60">
</g>
<g id="Layer_61">
</g>
<g id="Layer_62">
</g>
<g id="Layer_63">
</g>
<g id="Layer_64">
</g>
<g id="Layer_65">
</g>
<g id="Layer_66">
</g>
<g id="Layer_67">
</g>
<g id="Layer_68">
</g>
<g id="Layer_69">
</g>
<g id="Layer_70">
</g>
<g id="Layer_71">
</g>
<g id="Layer_72">
</g>
<g id="Layer_73">
</g>
<g id="Layer_74">
</g>
<g id="Layer_75">
</g>
<g id="Layer_76">
</g>
<g id="Layer_77">
</g>
<g id="Layer_78">
</g>
<g id="Layer_79">
</g>
<g id="Layer_80">
</g>
<g id="Layer_81">
</g>
<g id="Layer_82">
</g>
<g id="Layer_83">
</g>
<g id="Layer_84">
</g>
<g id="Layer_85">
</g>
</svg>
