<svg width="343" height="181" viewBox="0 0 343 181" fill="none" xmlns="http://www.w3.org/2000/svg">
<path d="M38.2717 111.76C20.9817 122.633 11.9237 147.132 25.9209 179.785H301.291C305.966 167.956 308.764 152.414 309.641 143.165C311.557 122.987 304.696 102.022 292.604 90.9521C262.002 62.9465 236.559 101.848 220.471 85.4005C211.183 75.9098 212.065 49.264 204.799 36.8964C188.762 9.59876 158.565 -3.86461 128.79 0.967817C108.977 4.18194 91.1081 14.6672 80.2071 32.4067C65.2771 56.7037 76.1444 74.1061 69.5532 90.9016C62.2034 109.624 49.8189 104.5 38.2661 111.76H38.2717Z" fill="#F2F6FE"/>
<path d="M62.765 68.9309C62.7257 69.0882 65.2824 67.5036 65.2824 67.5036L66.3612 65.8291C66.3612 65.8291 67.4176 65.1492 68.1706 64.7784C68.9292 64.4131 70.3171 62.1486 70.3171 62.1486L69.7664 61.4575C69.7664 61.4575 68.9741 62.424 68.71 62.5813C68.4515 62.7386 67.9177 62.6094 67.9177 62.6094C67.9177 62.6094 68.1031 61.907 68.5246 60.9012C68.946 59.8954 70.2384 58.2771 70.2384 58.2771L69.7552 57.7713C69.7552 57.7713 68.9797 58.5074 68.6988 58.8727C68.4178 59.2435 67.884 60.019 67.884 60.019C67.884 60.019 68.4403 58.6535 68.7831 58.1422C69.1258 57.6309 69.5023 56.9453 69.5023 56.9453L68.9404 56.5576C68.9404 56.5576 68.283 57.3668 67.9458 57.9736C67.6087 58.5805 66.9849 59.5807 66.9849 59.5807C66.9849 59.5807 67.4626 58.0411 67.693 57.5972C67.929 57.1532 68.0132 56.9229 68.0132 56.9229L67.3502 56.6981C67.3502 56.6981 66.8557 57.2937 66.5635 58.1029C66.2713 58.9064 66.0578 59.2604 66.0578 59.2604C66.0578 59.2604 66.2545 57.9624 66.4736 57.5803C66.6928 57.1982 66.6984 57.0409 66.6984 57.0409L66.1589 56.9397C66.1589 56.9397 65.125 58.8446 64.58 60.0246C64.0349 61.2046 63.6135 62.8004 63.3044 63.6658C62.9954 64.5311 62.6021 67.4699 62.6021 67.4699L62.7425 68.9365L62.765 68.9309Z" fill="#F5C5B3"/>
<path d="M78.695 80.2365L65.6025 77.9833C65.6025 77.9833 65.2485 74.8815 65.462 71.274C65.6924 67.3575 66.1756 66.2674 66.1756 66.2674L62.6637 65.7786C62.6637 65.7786 61.9726 68.8635 61.4725 71.083C60.3711 75.9997 59.3597 80.6074 60.2025 81.6301C61.4275 83.1191 72.3173 86.1534 76.0428 88.9461C78.2848 90.6262 78.1556 85.2431 78.695 80.2365Z" fill="#2C3A5F"/>
<path d="M97.2551 117.458L96.592 121.987L97.9575 125.088L98.9577 123.734L99.1881 121.206L100.666 121.43L101.391 120.52L101.329 118.621L101.087 113.462L97.2551 117.458Z" fill="#FEC4AD"/>
<path d="M96.3334 82.9449C95.322 82.574 92.0348 82.8156 92.0348 82.8156C92.0348 82.8156 91.7257 86.3276 93.0631 89.0416C94.4004 91.7556 97.7157 101.645 98.1315 102.572C98.5529 103.5 97.2549 117.452 97.2549 117.452L102.065 116.468C102.065 116.468 104.38 105.708 104.363 102.971C104.346 100.235 101.784 89.9968 99.969 86.7321C98.1484 83.4674 98.7889 83.8439 96.339 82.9393L96.3334 82.9449Z" fill="#2C3A5F"/>
<path d="M88.4108 72.8811C88.4108 72.8811 87.3544 77.5225 88.1804 78.6014C88.6636 79.2363 90.7202 81.4896 90.7202 81.4896C90.7202 81.4896 83.9099 85.0858 81.9039 85.0858C79.8978 85.0858 80.6058 81.0681 80.6058 81.0681C80.6058 81.0681 82.7917 79.3431 83.112 78.4721C83.4379 77.6011 83.6177 75.0726 83.6177 75.0726L88.4052 72.8811H88.4108Z" fill="#FEC4AD"/>
<path d="M89.2089 73.0552C89.2089 73.0552 89.1302 71.3639 90.5462 71.4088C91.4509 71.4369 91.5183 72.2629 90.8159 73.3306C90.5181 73.7801 90.49 74.7972 90.1192 75.1231C89.6696 75.522 89.2988 74.9095 89.1639 74.6286C88.9391 74.1678 89.2089 73.0496 89.2089 73.0496V73.0552Z" fill="#F5C5B3"/>
<path d="M81.5837 73.0552C81.5837 73.0552 81.6624 71.3639 80.2463 71.4088C79.3417 71.4369 79.2742 72.2629 79.9766 73.3306C80.2744 73.7801 80.3025 74.7972 80.6734 75.1231C81.1229 75.522 81.4938 74.9095 81.6286 74.6286C81.8534 74.1678 81.5837 73.0496 81.5837 73.0496V73.0552Z" fill="#F5C5B3"/>
<path d="M90.6474 68.9196C90.6137 69.4703 90.5013 69.8243 90.3608 70.6391C90.3271 70.8358 90.2878 71.0605 90.2541 71.319C89.9619 73.3475 89.591 76.1065 89.428 76.5167C89.1639 77.1966 87.7142 78.3036 87.0287 78.7081C86.3432 79.1127 84.6125 79.0284 83.9213 78.6238C83.2358 78.2193 81.6793 77.1966 81.4152 76.5167C81.2523 76.0952 80.8702 73.2576 80.5723 71.201C80.5386 70.965 80.5049 70.7627 80.4768 70.5829C80.3363 69.7794 80.2296 69.4647 80.1959 68.9196C80.0891 67.2058 82.0165 64.7166 85.4216 64.7166C89.4449 64.7166 90.7542 67.2058 90.6474 68.9196Z" fill="#F5C5B3"/>
<g style="mix-blend-mode:multiply">
<path d="M81.8982 66.762C81.8982 66.762 84.792 65.4752 88.1298 66.9923L89.3323 66.2281C89.3323 66.2281 87.5847 65.3122 85.0674 65.3291C82.55 65.3459 81.8982 66.762 81.8982 66.762Z" fill="#E8D4E5"/>
</g>
<path d="M90.3608 70.639C90.3271 70.8357 90.2878 71.0604 90.254 71.3189C89.9618 73.3474 89.591 76.1064 89.428 76.5166C89.1639 77.1965 87.7142 78.3035 87.0287 78.708C86.3432 79.1126 84.6125 79.0283 83.9213 78.6237C83.2358 78.2192 81.6793 77.1965 81.4152 76.5166C81.2522 76.0951 80.8701 73.2575 80.5723 71.2009C80.5386 70.9649 80.5049 70.7626 80.4768 70.5828L80.7521 70.167C80.7521 70.167 81.2522 73.1058 82.0221 74.0217C82.7863 74.932 82.938 74.9769 82.938 74.9769C82.938 74.9769 83.7752 74.769 84.5057 74.5892C84.5507 74.578 84.59 74.5667 84.6293 74.5555C85.2362 74.4094 85.8599 74.4094 86.4611 74.5724C86.4949 74.578 86.5286 74.5892 86.5623 74.6005L86.6747 74.6342L87.8659 74.9769C87.8659 74.9769 88.1413 74.932 88.9111 74.0217C89.6809 73.1058 90.0461 70.167 90.0461 70.167L90.3608 70.639Z" fill="#7B2B1A"/>
<path d="M90.8944 67.824C90.8831 67.8802 90.6078 69.8862 90.4954 70.2008C90.3212 70.6841 90.1864 71.0381 90.1864 71.0381L89.9785 70.5886C89.5964 69.7569 89.3885 68.8579 89.3716 67.942L89.3323 66.2225L89.9054 65.7168C91.0292 65.8854 91.1529 66.5372 90.8944 67.8183V67.824Z" fill="#7B2B1A"/>
<path d="M81.9657 66.3123L81.6903 68.088C81.5611 68.9084 81.2858 69.695 80.8699 70.4143L80.8475 70.4536L80.5384 70.993C80.5384 70.993 80.4485 70.6784 80.3193 70.2345C80.2238 69.9086 79.9934 68.2341 79.9372 67.9981C79.9203 67.925 79.9035 67.852 79.8922 67.7845C79.6506 66.5259 79.8866 66.0033 80.9992 65.8347L81.9713 66.318L81.9657 66.3123Z" fill="#7B2B1A"/>
<path d="M89.9057 65.7167L89.3326 66.2225L88.2425 66.6158C88.1132 66.4809 86.1297 65.7954 84.4102 65.9247C82.23 66.0932 81.9322 66.7226 81.8985 66.7619L81.6737 66.7169L80.6005 66.4809L80.3813 66.4304C80.3813 66.4304 80.6286 65.4864 80.8084 65.2166C81.6681 63.9242 84.0001 63.087 86.1241 63.3005C86.1971 63.3061 86.2645 63.3174 86.3376 63.323C88.3211 63.5815 89.2258 64.5199 89.2258 64.5199L89.9057 65.7167Z" fill="#7B2B1A"/>
<path d="M95.2153 175.789V180.037H87.0508C87.0508 180.037 87.3598 178.498 91.2314 177.79L91.7989 175.789H95.2153Z" fill="#133A50"/>
<path d="M82.7971 175.789V180.037H74.6326C74.6326 180.037 74.9416 178.498 78.8132 177.79L79.3807 175.789H82.7971Z" fill="#133A50"/>
<path d="M93.8443 112.546C93.8443 112.546 94.985 126.229 95.0244 137.388C95.0637 148.548 95.7267 176.762 95.7267 176.762H91.2202C91.2202 176.762 86.5732 149.666 84.8819 142.491C83.1905 135.315 78.802 112.681 78.802 112.681L93.8387 112.546H93.8443Z" fill="#133A50"/>
<path d="M84.0447 127.24C84.0447 127.24 83.2018 144.244 83.0332 147.593C82.8646 150.942 83.0332 176.745 83.0332 176.745C83.0332 176.745 78.8076 176.857 78.8076 176.745C78.8076 176.632 74.8237 149.262 74.3124 141.013C73.7954 132.764 74.0988 122.981 73.4133 121.84C72.7278 120.7 75.262 112.597 75.262 112.597L81.2407 114.193L84.0447 127.24Z" fill="#133A50"/>
<path d="M82.2015 79.5229C82.2015 79.5229 80.3304 83.7709 83.1456 84.2373C87.624 84.9847 88.9894 79.2532 88.9894 79.2532L93.9286 81.7986C93.9286 81.7986 93.8387 112.546 95.7773 121.93C96.9067 127.381 78.1446 124.785 75.3968 119.947C73.0143 115.76 79.8977 80.967 79.8977 80.967L82.2015 79.5229Z" fill="white"/>
<path d="M90.1525 79.7871C90.0176 79.9725 83.3927 99.3641 85.646 117.615C86.1742 121.869 93.9285 118.351 95.7829 118.351C95.7829 118.351 96.6651 104.73 96.8786 99.6675C97.0921 94.6047 94.6815 92.9358 94.895 90.4578C95.1086 87.9798 97.8057 83.5631 97.8057 83.5631L90.1525 79.7927V79.7871Z" fill="#2C3A5F"/>
<path d="M79.0772 119.548C79.8357 106.86 80.1448 80.3039 80.1448 80.3039L75.6664 79.9724C75.6664 79.9724 73.4243 102.247 73.3963 104.781C73.385 105.787 73.6997 118.019 73.0198 120.306C74.5313 120.531 78.9873 121.076 79.0772 119.548Z" fill="#2C3A5F"/>
<path d="M127.835 72.8811C124.323 74.0892 120.71 75.3479 117.917 77.7978C115.124 80.2477 113.326 84.2205 114.506 87.7436C115.681 91.2668 120.581 93.3178 123.413 90.9128C124.43 90.0475 125.059 88.564 124.514 87.3503C123.435 84.9397 119.67 86.0691 117.906 88.0358C115.816 90.3621 114.484 93.5482 115.001 96.6331C115.518 99.7179 118.215 102.494 121.345 102.494C124.475 102.494 128.936 97.7681 126.256 96.1498C122.851 94.0932 118.479 98.9875 116.804 102.595C115.13 106.202 116.175 111.08 119.597 113.108C123.019 115.131 131.043 112.574 128.942 109.197C126.722 105.629 120.153 110.771 119.283 114.884C118.412 118.991 121.626 123.498 125.801 124.004C129.97 124.509 137.196 119.761 134.308 116.71C130.139 112.299 123.182 123.532 125.188 129.258C127.194 134.989 135.494 137.265 140.146 133.371C141.017 132.64 141.804 131.595 141.641 130.471C141.371 128.595 138.803 128.066 137.005 128.668C132.319 130.235 130.2 136.793 133.089 140.805C135.977 144.817 142.872 144.89 145.844 140.94C146.423 140.17 146.872 139.203 146.664 138.265C146.372 136.95 144.816 136.214 143.495 136.461C142.175 136.709 141.107 137.703 140.354 138.821C137.679 142.783 138.584 148.733 142.31 151.723C146.041 154.712 152.042 154.302 155.329 150.829C156.183 149.925 156.891 148.717 156.666 147.492C156.402 146.076 154.891 145.126 153.452 145.16C152.014 145.193 150.693 146.019 149.693 147.059C145.496 151.419 147.288 159.854 152.896 162.124C158.504 164.399 169.624 158.134 165.685 153.543C163.055 150.475 157.869 157.111 158.532 161.095C159.195 165.079 163.78 167.799 167.685 166.771C171.591 165.742 176.738 160.14 173.72 157.454C171.585 155.555 168.129 159.573 167.466 162.354C166.809 165.136 168.287 168.277 170.855 169.541C173.619 170.901 177.002 170.08 179.654 168.529C182.312 166.973 184.515 164.753 187.071 163.04C192.207 159.601 198.77 158.376 204.8 159.719" stroke="white" stroke-width="2" stroke-miterlimit="10"/>
<path d="M305.063 91.2171C299.371 87.5815 248.636 130.354 250.496 164.147C250.496 164.147 260.375 150.808 268.983 144.306C277.591 137.805 278.434 131 278.418 124.263C278.401 117.526 291.274 120.307 292.724 112.834C295.292 99.6064 310.188 94.4874 305.063 91.2171Z" fill="#B9C4E2"/>
<path d="M308.484 122.672C300.285 127.639 302.701 134.253 297.869 138.119C294.357 140.928 288.491 139.462 285.563 143.289C282.27 147.604 286.013 153.543 286.294 158.741C286.676 165.922 280.27 171.311 273.763 173.491C266.205 176.025 256.423 175.233 252.281 167.715C247.398 158.842 251.056 145.469 259.62 141.299C261.699 140.288 264.345 140.013 266.042 137.962C268.914 134.5 267.071 129.527 268.397 125.128C269.695 120.84 273.932 117.823 277.837 116.491C281.742 115.154 285.721 114.884 289.536 113.333C294.734 111.22 299.285 106.585 303.612 103.455C307.472 100.662 321.02 95.4306 323.228 104.579C325.234 112.917 315.367 118.497 308.484 122.666V122.672Z" fill="#D2E2FA"/>
<path d="M309.332 109.332C309.332 109.332 275.831 126.167 249.101 180.498" stroke="#A6BEE1" stroke-miterlimit="10"/>
<path d="M329.561 134.708C329.561 134.708 286.485 134.225 250.685 175.289" stroke="white" stroke-miterlimit="10"/>
<path d="M308.115 153.949C304.007 155.589 302.895 162.512 298.472 163.394C295.258 164.035 291.825 161.186 288.684 162.664C285.144 164.327 285.768 169.323 284.318 172.716C282.317 177.403 276.378 178.735 271.371 177.993C265.556 177.133 259.313 173.441 258.925 167.317C258.464 160.09 265.089 152.791 272.085 152.937C273.782 152.971 275.625 153.662 277.395 152.915C280.384 151.656 280.722 147.897 282.986 145.537C285.189 143.239 288.954 142.705 291.965 143.132C294.977 143.559 297.702 144.683 300.72 144.941C304.833 145.295 309.306 143.834 313.161 143.261C316.6 142.75 330.642 143.02 325.832 150.375C322.5 155.466 313.582 151.763 308.115 153.954V153.949Z" fill="#B9C4E2"/>
<path d="M317.058 147.137C317.058 147.137 287.137 149.683 252.337 175.463" stroke="#9FB3D1" stroke-miterlimit="10"/>
<path d="M219.555 179.307C219.555 179.307 226.366 167.383 227.473 166.158C234.474 158.404 243.768 158.32 253.225 160.275C255.962 160.843 263.21 164.647 265.834 164.124C267.88 163.714 270.341 155.931 276.893 156.342C283.445 156.752 283.844 164.534 283.844 164.534C283.844 164.534 287.957 155.493 294.509 156.325C301.061 157.162 301.061 163.264 296.149 167.793C296.149 167.793 306.595 164.658 316.732 169.513C326.869 174.368 322.031 180.734 322.031 180.734L219.55 179.313L219.555 179.307Z" fill="#D2E2FA"/>
<path d="M37.2511 91.2171C42.9432 87.5815 93.6781 130.354 91.8182 164.147C91.8182 164.147 81.9398 150.808 73.3313 144.306C64.7229 137.805 63.88 131 63.8968 124.263C63.9137 117.526 51.0403 120.307 49.5906 112.834C47.0227 99.6064 32.1264 94.4874 37.2511 91.2171Z" fill="#B9C4E2"/>
<path d="M34.0009 122.672C42.1992 127.639 39.783 134.253 44.6154 138.119C48.1273 140.928 53.9937 139.462 56.9212 143.289C60.214 147.604 56.4717 153.543 56.1907 158.741C55.8086 165.922 62.2144 171.311 68.7213 173.491C76.279 176.025 86.0619 175.233 90.2032 167.715C95.0862 158.842 91.4281 145.469 82.8646 141.299C80.7856 140.288 78.139 140.013 76.442 137.962C73.5706 134.5 75.4137 129.527 74.0876 125.128C72.7896 120.84 68.5528 117.823 64.6475 116.491C60.7422 115.154 56.7639 114.884 52.9485 113.333C47.7509 111.22 43.1994 106.585 38.8727 103.455C35.0123 100.662 21.4647 95.4306 19.2564 104.579C17.2504 112.917 27.1175 118.497 34.0009 122.666V122.672Z" fill="#D2E2FA"/>
<path d="M33.1582 109.332C33.1582 109.332 66.6593 126.167 93.3894 180.498" stroke="#A6BEE1" stroke-miterlimit="10"/>
<path d="M12.9238 134.708C12.9238 134.708 55.9999 134.225 91.7992 175.289" stroke="white" stroke-miterlimit="10"/>
<path d="M34.1996 153.949C38.3072 155.589 39.4198 162.512 43.842 163.394C47.0561 164.035 50.4894 161.186 53.6305 162.664C57.1705 164.327 56.5468 169.323 57.9965 172.716C59.9969 177.403 65.9363 178.735 70.943 177.993C76.7587 177.133 83.0015 173.441 83.3893 167.317C83.85 160.09 77.2251 152.791 70.2293 152.937C68.5324 152.971 66.6893 153.662 64.9193 152.915C61.9299 151.656 61.5928 147.897 59.3283 145.537C57.12 143.239 53.3608 142.705 50.3489 143.132C47.3371 143.559 44.6118 144.683 41.5944 144.941C37.4812 145.295 33.0084 143.834 29.1537 143.261C25.7148 142.75 11.6727 143.02 16.4826 150.375C19.8147 155.466 28.7323 151.763 34.1996 153.954V153.949Z" fill="#B9C4E2"/>
<path d="M25.4319 147.137C25.4319 147.137 55.3536 149.683 90.1527 175.463" stroke="#9FB3D1" stroke-miterlimit="10"/>
<path d="M122.935 179.307C122.935 179.307 116.124 167.383 115.017 166.158C108.016 158.404 98.722 158.32 89.265 160.275C86.5285 160.843 79.2799 164.647 76.6557 164.124C74.6104 163.714 72.1492 155.931 65.5973 156.342C59.0455 156.752 58.6465 164.534 58.6465 164.534C58.6465 164.534 54.5333 155.493 47.9815 156.325C41.4296 157.162 41.4296 163.264 46.3407 167.793C46.3407 167.793 35.8948 164.658 25.7579 169.513C15.621 174.368 20.4591 180.734 20.4591 180.734L122.94 179.313L122.935 179.307Z" fill="#D2E2FA"/>
<path d="M196.32 180.347H185.723C184.554 180.347 183.582 179.447 183.481 178.284L182.784 169.917H199.248L198.551 178.284C198.456 179.447 197.478 180.347 196.309 180.347H196.32Z" fill="#21295B"/>
<path d="M258.889 180.347H248.291C247.123 180.347 246.145 179.447 246.049 178.284L245.353 169.917H261.817L261.12 178.284C261.024 179.447 260.046 180.347 258.878 180.347H258.889Z" fill="#21295B"/>
<path d="M260.726 158.943H183.885L189.319 119.329C189.74 116.238 192.381 113.934 195.5 113.934H249.106C252.225 113.934 254.866 116.238 255.287 119.329L260.721 158.943H260.726Z" fill="#FF3A46"/>
<path d="M250.354 151.256H194.252L198.236 111.462C198.534 108.506 201.023 106.253 203.996 106.253H240.61C243.583 106.253 246.072 108.506 246.37 111.462L250.354 151.256Z" fill="#FF3A46"/>
<g style="mix-blend-mode:multiply">
<path d="M185.116 149.947L183.885 158.943H260.726L259.49 149.947H185.116Z" fill="#CFCFCF"/>
</g>
<path d="M269.043 174.312H175.569L177.3 154.004H267.312L269.043 174.312Z" fill="#FF3A46"/>
<g style="mix-blend-mode:multiply">
<path d="M238.166 124.622C241.7 133.382 237.463 143.345 228.703 146.879C219.943 150.413 209.98 146.177 206.446 137.416C202.911 128.656 207.148 118.694 215.908 115.159C224.669 111.625 234.631 115.862 238.166 124.622Z" fill="#CFCFCF"/>
</g>
<path d="M222.651 145.799C230.817 145.608 237.282 138.833 237.091 130.667C236.9 122.502 230.126 116.037 221.96 116.228C213.794 116.419 207.329 123.193 207.52 131.359C207.711 139.525 214.486 145.99 222.651 145.799Z" fill="white"/>
<path d="M226.439 143.176C225.927 143.176 225.433 142.974 225.079 142.614C224.989 142.524 224.91 142.429 224.843 142.316C224.77 142.21 224.714 142.103 224.663 141.985C224.618 141.872 224.579 141.749 224.556 141.631C224.534 141.507 224.517 141.378 224.517 141.254C224.517 140.749 224.725 140.254 225.084 139.9C225.528 139.456 226.191 139.248 226.815 139.372C226.939 139.4 227.057 139.434 227.169 139.484C227.287 139.535 227.399 139.597 227.506 139.658C227.607 139.732 227.708 139.81 227.798 139.9C228.152 140.254 228.366 140.749 228.366 141.254C228.366 141.378 228.349 141.507 228.327 141.631C228.299 141.749 228.259 141.872 228.22 141.985C228.169 142.103 228.107 142.21 228.046 142.316C227.973 142.429 227.894 142.524 227.804 142.614C227.714 142.704 227.619 142.777 227.512 142.85C227.405 142.923 227.298 142.979 227.175 143.024C227.062 143.075 226.939 143.114 226.821 143.137C226.697 143.165 226.568 143.176 226.45 143.176H226.439Z" fill="#B3B3B3"/>
<path d="M220.488 143.85C219.443 143.704 218.712 142.732 218.858 141.676C219.005 140.631 219.977 139.9 221.033 140.046C222.078 140.198 222.809 141.17 222.663 142.221C222.528 143.182 221.702 143.873 220.758 143.873C220.668 143.873 220.584 143.873 220.488 143.85ZM214.318 141.226C213.487 140.574 213.335 139.366 213.987 138.529C214.639 137.697 215.841 137.546 216.678 138.197C217.51 138.849 217.662 140.057 217.01 140.889C216.633 141.378 216.066 141.631 215.498 141.631C215.088 141.631 214.672 141.501 214.318 141.226ZM210.289 135.86C209.89 134.877 210.368 133.758 211.346 133.365C212.329 132.966 213.447 133.444 213.846 134.421C214.24 135.405 213.762 136.523 212.784 136.922C212.548 137.017 212.307 137.057 212.065 137.057C211.306 137.057 210.582 136.607 210.289 135.854V135.86ZM211.104 131.376C210.059 131.23 209.323 130.258 209.469 129.201C209.621 128.156 210.593 127.42 211.644 127.572C212.694 127.718 213.419 128.69 213.279 129.741C213.144 130.702 212.318 131.393 211.374 131.393C211.284 131.393 211.194 131.393 211.104 131.376ZM212.425 125.729C211.593 125.077 211.436 123.869 212.087 123.037C212.739 122.2 213.947 122.048 214.779 122.7C215.616 123.352 215.768 124.56 215.111 125.391C214.734 125.88 214.166 126.133 213.599 126.133C213.189 126.133 212.773 126.004 212.419 125.729H212.425ZM227.922 123.818C227.085 123.166 226.933 121.958 227.585 121.127C228.231 120.289 229.439 120.138 230.276 120.784C231.108 121.436 231.265 122.644 230.614 123.481C230.237 123.964 229.67 124.223 229.102 124.223C228.686 124.223 228.276 124.088 227.922 123.818ZM216.386 121.492C215.987 120.508 216.465 119.39 217.442 118.997C218.426 118.598 219.544 119.076 219.943 120.053C220.336 121.037 219.864 122.155 218.881 122.554C218.651 122.649 218.403 122.689 218.162 122.689C217.403 122.689 216.684 122.239 216.386 121.486V121.492ZM223.567 121.975C222.522 121.829 221.792 120.857 221.938 119.8C222.084 118.755 223.056 118.019 224.107 118.171C225.157 118.311 225.888 119.289 225.742 120.34C225.607 121.301 224.781 121.992 223.843 121.992C223.747 121.992 223.663 121.992 223.567 121.975Z" fill="#B3B3B3"/>
<path d="M232.547 128.808C232.423 128.808 232.294 128.791 232.176 128.769C232.052 128.74 231.929 128.707 231.816 128.662C231.704 128.611 231.591 128.549 231.485 128.488C231.372 128.415 231.282 128.336 231.187 128.246C230.833 127.892 230.625 127.398 230.625 126.892C230.625 126.768 230.636 126.639 230.664 126.515C230.687 126.397 230.726 126.274 230.777 126.161C230.827 126.049 230.878 125.931 230.951 125.824C231.024 125.717 231.097 125.622 231.187 125.532C231.282 125.442 231.372 125.363 231.485 125.296C231.586 125.223 231.698 125.167 231.816 125.116C231.929 125.071 232.052 125.032 232.176 125.009C232.794 124.886 233.457 125.088 233.901 125.532C233.996 125.622 234.07 125.717 234.143 125.824C234.216 125.931 234.266 126.043 234.317 126.161C234.367 126.274 234.407 126.397 234.429 126.515C234.457 126.639 234.468 126.768 234.468 126.892C234.468 127.398 234.261 127.892 233.907 128.246C233.553 128.6 233.058 128.814 232.552 128.814L232.547 128.808Z" fill="#B3B3B3"/>
<path d="M200.253 68.723C200.253 68.723 198.219 64.3288 201.899 60.1426C201.899 60.1426 215.807 69.15 231.349 66.6102C231.349 66.6102 233.052 71.2965 228.276 75.6401C228.276 75.6401 211.637 78.7924 200.253 68.723Z" fill="#D6313B"/>
<path d="M224.061 48.7807C214.054 40.3409 195.1 39.1552 171.107 43.0212C150.474 46.3421 129.464 54.1358 122.445 65.1436C119.254 70.1558 121.423 84.08 121.423 84.08C140.427 85.2656 147.389 68.9252 147.389 68.9252C147.389 68.9252 146.119 64.2895 150.378 62.2385C165.28 55.0685 188.38 52.6186 196.972 54.737C201.562 55.8664 201.905 60.1482 201.905 60.1482C201.905 60.1482 213.644 73.4767 231.316 66.3854C231.316 66.3854 228.607 52.613 224.061 48.7807Z" fill="#FF3A46"/>
<path d="M151.272 76.3929C151.272 76.3929 151.822 71.583 147.018 68.7678C147.018 68.7678 136.645 81.6861 121.086 84.1529C121.086 84.1529 120.94 89.1371 126.84 91.7612C126.84 91.7612 143.624 89.536 151.277 76.3986L151.272 76.3929Z" fill="#D6313B"/>
<path d="M147.468 120.037H72.2504C67.8374 120.037 64.26 123.614 64.26 128.027V172.261C64.26 176.674 67.8374 180.251 72.2504 180.251H147.468C151.881 180.251 155.458 176.674 155.458 172.261V128.027C155.458 123.614 151.881 120.037 147.468 120.037Z" fill="#FFF8BD"/>
<g style="mix-blend-mode:multiply">
<path d="M155.458 128.027C155.458 123.616 151.879 120.037 147.468 120.037H72.2504C67.8394 120.037 64.26 123.616 64.26 128.027L105.617 161.551C108.061 163.534 111.556 163.534 114.006 161.551L155.464 128.021L155.458 128.027Z" fill="#F8F3CE"/>
</g>
<path style="mix-blend-mode:overlay" opacity="0.7" d="M69.5813 174.042V129.808C69.5813 125.397 73.1607 121.818 77.5717 121.818H152.429C151.064 120.722 149.35 120.042 147.462 120.042H72.2504C67.8394 120.042 64.26 123.622 64.26 128.033V172.266C64.26 176.677 67.8394 180.257 72.2504 180.257H72.6044C70.7726 178.79 69.5813 176.565 69.5813 174.042Z" fill="url(#paint0_radial_4395_251318)"/>
<path d="M182.75 83.6135C182.75 83.6135 185.346 76.1233 185.526 75.2972C186.599 70.4311 186.891 59.8784 186.824 57.6364C186.757 55.3944 186.549 53.4221 186.504 53.1186C186.459 52.8152 185.065 51.3149 185.06 51.3374C185.06 51.3599 184.627 51.3823 184.627 51.3823L184.61 51.6633L184.009 51.1463L183.509 51.1182L183.458 51.3542L182.745 51.0115L182.053 51.0002C182.053 51.0002 182.497 52.4275 182.75 53.2928C183.003 54.1582 182.739 54.2312 182.739 54.2312C182.739 54.2312 182.183 54.4391 181.969 54.3717C181.75 54.3043 180.991 54.3324 180.991 54.3324C180.991 54.3324 183.087 57.0576 183.183 57.3105C183.278 57.5634 184.475 58.8052 184.026 61.2551C183.228 65.6436 181.042 72.1618 181.042 72.1618C181.109 72.0101 178.221 80.2477 178.221 80.2477L182.75 83.6191V83.6135Z" fill="#FEC4AD"/>
<path d="M181.351 93.5257C182.154 87.2211 185.38 79.86 185.38 79.86C185.38 79.86 180.452 78.8823 179.176 77.1292C179.176 77.1292 177.479 81.2761 176.502 83.3439C175.423 85.6309 173.906 88.1145 175.81 89.4687C177.648 90.778 181.076 95.7171 181.351 93.5257Z" fill="#2C3A5F"/>
<path d="M162.459 176.267V180.318H170.248C170.248 180.318 169.955 178.852 166.264 178.172L165.719 176.261H162.459V176.267Z" fill="#133A50"/>
<path d="M174.304 176.267V180.318H182.092C182.092 180.318 181.8 178.852 178.108 178.172L177.563 176.261H174.304V176.267Z" fill="#133A50"/>
<path d="M163.768 115.94C163.768 115.94 162.678 127.263 162.639 137.911C162.6 148.553 161.965 177.2 161.965 177.2H166.263C166.263 177.2 170.697 149.621 172.309 142.777C173.922 135.933 178.108 116.069 178.108 116.069L163.763 115.94H163.768Z" fill="#133A50"/>
<path d="M170.377 78.3765C170.377 78.3765 170.096 80.5454 169.871 81.6468C169.64 82.7481 169.449 83.3325 169.286 83.6697C168.916 84.417 166.629 86.6871 166.629 86.6871C166.629 86.6871 173.754 90.4519 175.85 90.4519C177.946 90.4519 177.209 86.2488 177.209 86.2488C177.209 86.2488 174.922 84.4451 174.585 83.5292C174.243 82.6189 174.057 79.9723 174.057 79.9723L170.382 78.3765H170.377Z" fill="#FEC4AD"/>
<path d="M173.113 128.229C173.113 128.229 173.917 146.177 174.08 149.374C174.242 152.566 174.08 177.183 174.08 177.183C174.08 177.183 178.108 177.29 178.108 177.183C178.108 177.076 181.907 149.239 182.396 141.372C182.89 133.506 182.598 124.172 183.256 123.088C183.907 121.998 181.491 115.996 181.491 115.996L175.788 115.789L173.113 128.235V128.229Z" fill="#133A50"/>
<path d="M168.073 84.5688C168.073 84.5688 162.055 82.1526 161.06 84.1361C160.307 85.6364 160.953 95.2619 161.291 97.9535C161.583 100.297 163.201 119.986 163.201 119.986C163.201 119.986 165.449 123.47 176.277 122.082C180.452 121.548 182.503 119.514 182.503 119.514C182.503 119.514 181.334 96.0205 181.008 93.6605C180.688 91.3005 179.569 87.6256 179.569 87.6256L176.35 85.5016C176.35 85.5016 177.378 87.7717 174.467 88.4179C168.607 89.7215 168.073 84.5688 168.073 84.5688Z" fill="#2C3A5F"/>
<path d="M176.074 70.1838C176.754 70.4592 177.951 71.0717 178.08 71.6448C178.215 72.2123 178.698 73.8643 178.76 74.8645C178.822 75.8647 178.968 77.7584 178.963 78.9328C178.963 80.1128 178.249 82.4953 177.979 82.7481C177.709 83.001 175.732 83.4112 175.063 83.2202C174.394 83.0291 170.466 80.995 170.219 78.5113C170.219 78.5113 169.522 78.8766 168.241 76.8031C167.91 76.2637 169.062 72.2404 169.213 71.5212C169.59 69.7793 173.883 71.1503 174.849 70.875C175.81 70.5996 176.069 70.1838 176.069 70.1838H176.074Z" fill="#FEC4AD"/>
<path d="M178.08 71.6449C178.08 71.6449 175.069 73.5273 173.894 73.6284C172.72 73.724 170.995 75.3366 171.028 75.8424C171.062 76.3481 170.534 76.6852 170.534 76.6852C170.534 76.6852 169.804 75.5221 169.202 75.6401C168.017 75.8817 168.713 77.3427 169.354 77.663C169.995 77.9832 170.624 78.1855 170.624 78.1855C170.624 78.1855 170.731 78.8823 170.68 79.4386C170.63 79.9949 170.18 80.9052 170.18 80.9052C170.18 80.9052 168.792 77.9832 167.545 76.8875C164.583 74.2915 166.73 69.4703 169.646 68.5656C170.826 68.2004 174.057 67.9588 175.636 68.6611C177.743 69.6052 178.08 71.6393 178.08 71.6393V71.6449Z" fill="#133A50"/>
<path d="M171.776 75.7636C171.821 75.8816 172.13 75.9041 172.186 75.9266C172.309 75.9828 172.253 75.9996 172.798 76.8312C173.197 77.4437 173.866 77.6404 175.119 77.219C176.074 76.8987 175.939 76.0783 176.007 75.685C176.074 75.2916 176.159 75.2298 176.31 75.2017C176.462 75.1736 176.546 75.213 176.743 75.5557C176.94 75.8985 177.029 76.7919 178.03 76.6402C178.721 76.5391 178.901 76.348 178.991 75.8029C179.075 75.3197 179.097 74.8421 179.069 74.4825C179.041 74.1228 179.036 73.9037 178.85 73.8812C178.625 73.8587 178.327 73.9206 178.03 73.9711C177.434 74.0779 177.007 74.0891 176.681 74.3195C176.361 74.5555 176.395 74.696 176.226 74.7297C176.052 74.7634 176.024 74.6117 175.642 74.5049C175.259 74.3926 173.669 74.6735 173.074 74.7803C172.478 74.887 171.658 75.1062 171.674 75.3309C171.686 75.4546 171.719 75.6175 171.77 75.758L171.776 75.7636ZM176.923 74.8758C176.951 74.5836 176.973 74.6173 177.709 74.4488C178.445 74.2802 178.524 74.3139 178.67 74.4319C178.816 74.5499 178.929 75.0107 178.85 75.6175C178.811 75.9434 178.743 76.3649 178.142 76.4716C177.496 76.584 177.344 76.2637 177.159 75.8142C176.973 75.3647 176.906 74.9826 176.917 74.8758H176.923ZM172.63 75.3534C172.731 75.1905 173.725 75.0556 174.478 74.9657C175.226 74.8758 175.479 74.8421 175.608 75.1062C175.653 75.2017 175.72 75.5838 175.703 76.067C175.687 76.5503 175.591 76.9773 174.422 77.1853C173.596 77.3313 173.197 77.1066 172.86 76.4885C172.562 75.9547 172.54 75.5108 172.641 75.3478L172.63 75.3534ZM170.129 76.0951L171.776 75.758L172.332 74.9432C172.332 74.9432 171.703 75.0331 170.657 75.2635C170.163 75.3759 169.668 75.7299 169.668 75.7299C169.668 75.7299 169.91 75.8423 170.135 76.0895L170.129 76.0951Z" fill="#21295B"/>
<path d="M157.155 84.2992C157.155 84.2992 155.733 75.2805 155.716 74.4376C155.632 69.4535 158.16 62.7555 158.677 60.5697C159.194 58.3839 159.537 58.7322 159.638 58.4457C159.739 58.1591 163.364 57.6028 163.364 57.6028C163.364 57.6028 164.336 57.1982 164.566 57.1758C164.791 57.1533 165.746 56.8667 165.746 56.8667L165.19 57.8669C165.19 57.8669 162.931 59.5807 162.791 59.8111C162.645 60.0415 161.229 61.0192 161.178 63.5085C161.082 67.97 161.099 72.7969 161.099 72.7969C161.066 72.6339 163.235 82.0347 163.235 82.0347L157.16 84.3048L157.155 84.2992Z" fill="#FEC4AD"/>
<path d="M161.29 97.9537C159.756 93.6045 156.256 81.9336 156.256 81.9336C156.256 81.9336 161.465 80.6244 162.937 79.0286C162.937 79.0286 164.696 84.2487 165.426 86.4121C166.235 88.8058 167.449 91.4524 165.398 92.5762C163.42 93.6607 162.026 100.038 161.29 97.9537Z" fill="#2C3A5F"/>
<path d="M0 180.049H342.49" stroke="#E0E3EB" stroke-miterlimit="10"/>
<defs>
<radialGradient id="paint0_radial_4395_251318" cx="0" cy="0" r="1" gradientUnits="userSpaceOnUse" gradientTransform="translate(73.8855 141.636) scale(37.7491)">
<stop stop-color="white"/>
<stop offset="1" stop-color="white" stop-opacity="0"/>
</radialGradient>
</defs>
</svg>
