<?xml version="1.0" encoding="UTF-8"?>
<!DOCTYPE svg PUBLIC "-//W3C//DTD SVG 1.1//EN" "http://www.w3.org/Graphics/SVG/1.1/DTD/svg11.dtd">
<!-- Creator: CorelDRAW -->
<svg xmlns="http://www.w3.org/2000/svg" xml:space="preserve" width="2048px" height="2048px" style="shape-rendering:geometricPrecision; text-rendering:geometricPrecision; image-rendering:optimizeQuality; fill-rule:evenodd; clip-rule:evenodd"
viewBox="0 0 2048 2048"
 xmlns:xlink="http://www.w3.org/1999/xlink">
 <defs>
  <style type="text/css">
   <![CDATA[
    .fil2 {fill:none}
    .fil1 {fill:#F45A52}
    .fil0 {fill:#333333;fill-rule:nonzero}
   ]]>
  </style>
 </defs>
 <g id="Layer_x0020_1">
  <metadata id="CorelCorpID_0Corel-Layer"/>
  <path class="fil0" d="M1024.13 595.427c-3.11929,0.0307087 -6.29528,-0.550394 -9.36142,-1.81299 -6.75001,-2.77914 -11.5524,-8.28544 -13.6654,-14.7165 -41.7012,-99.854 -110.961,-178.609 -191.93,-225.626 -79.2249,-46.0052 -169.632,-61.4528 -255.908,-36.0969 -32.7177,9.61536 -64.5662,24.1736 -93.5776,42.9142 -28.0477,18.1169 -53.2949,40.0477 -73.9323,65.0788 -187.647,227.606 1.21772,447.214 235.445,719.567 141.723,164.791 299.431,348.19 404.283,565.665 104.228,-217.68 261.488,-401.585 402.811,-566.83 233.426,-272.947 421.646,-493.035 233.367,-720.125 -20.7886,-25.0748 -46.1008,-46.9583 -74.1272,-64.9524 -29.0776,-18.6685 -60.9367,-33.1335 -93.6095,-42.6366 -86.3032,-25.1044 -176.668,-9.38859 -255.801,36.8563 -81.3154,47.5205 -150.69,127.069 -192.036,227.795l0.0732284 0.0295276c-3.78425,9.21969 -12.652,14.8193 -22.0299,14.8914zm-190.957 -283.594c76.9111,44.6611 144.157,114.863 190.677,203.186 46.2721,-88.4824 113.315,-158.883 190.086,-203.746 90.0922,-52.65 193.655,-70.3418 293.301,-41.3563 37.2402,10.8319 73.376,27.2044 106.172,48.2611 32.1437,20.6374 61.2284,45.8032 85.1894,74.7036 213.97,258.077 14.0315,491.868 -233.929,781.811 -149.151,174.401 -316.336,369.899 -416.719,602.02 -2.24055,5.74961 -6.68386,10.6394 -12.789,13.2945 -12.1547,5.28662 -26.2949,-0.281103 -31.5815,-12.4358l0.0637796 -0.0271654c-100.95,-232.076 -268.958,-427.432 -418.819,-601.686 -248.717,-289.201 -449.265,-522.396 -236.007,-781.067 23.9634,-29.067 52.9796,-54.3367 84.9946,-75.0166 32.7532,-21.1571 68.8146,-37.6229 105.953,-48.5386 99.5245,-29.25 203.136,-11.824 293.408,40.5969z"/>
  <path class="fil1" d="M1024.13 595.427c-3.11929,0.0307087 -6.29528,-0.550394 -9.36142,-1.81299 -6.75001,-2.77914 -11.5524,-8.28544 -13.6654,-14.7165 -41.7012,-99.854 -110.961,-178.609 -191.93,-225.626 -79.2249,-46.0052 -169.632,-61.4528 -255.908,-36.0969 -32.7177,9.61536 -64.5662,24.1736 -93.5776,42.9142 -28.0477,18.1169 -53.2949,40.0477 -73.9323,65.0788 -187.647,227.606 1.21772,447.214 235.445,719.567 141.723,164.791 299.431,348.19 404.283,565.665 104.228,-217.68 261.488,-401.585 402.811,-566.83 233.426,-272.947 421.646,-493.035 233.367,-720.125 -20.7886,-25.0748 -46.1008,-46.9583 -74.1272,-64.9524 -29.0776,-18.6685 -60.9367,-33.1335 -93.6095,-42.6366 -86.3032,-25.1044 -176.668,-9.38859 -255.801,36.8563 -81.3154,47.5205 -150.69,127.069 -192.036,227.795l0.0732284 0.0295276c-3.78425,9.21969 -12.652,14.8193 -22.0299,14.8914z"/>
 </g>
 <rect class="fil2" width="2048" height="2048"/>
</svg>
