<?xml version="1.0" encoding="utf-8"?>
<!-- Generator: Adobe Illustrator 24.3.0, SVG Export Plug-In . SVG Version: 6.00 Build 0)  -->
<svg version="1.1" id="Layer_1" xmlns="http://www.w3.org/2000/svg" xmlns:xlink="http://www.w3.org/1999/xlink" x="0px" y="0px"
	 viewBox="0 0 300 300" enable-background="new 0 0 300 300" xml:space="preserve">
<g>
	<g>
		<g>
			<polygon fill="#F4F4F4" points="271.239,240.424 81.36,240.424 65.761,101.505 255.64,101.505 			"/>
		</g>
		<g>
			<polygon fill="#F9F9F9" points="65.714,101.505 81.313,240.424 95.195,240.424 79.602,101.505 			"/>
		</g>
		<g>
			<path fill="#9AE8CE" d="M81.36,240.424L65.761,101.505L28.762,217.187C28.762,217.187,44.983,240.424,81.36,240.424z"/>
		</g>
		<g>
			<path fill="#AEF4DB" d="M36.73,225.159l31.766-99.307l-2.735-24.347L28.762,217.187c0,0,2.682,3.781,8.199,8.282
				C36.813,225.276,36.73,225.159,36.73,225.159z"/>
		</g>
		<g>
			<path fill="#9AE8CE" d="M203.522,101.505h-9.093V91.027c0-14.835-12.07-26.904-26.906-26.904H151.8
				c-14.835,0-26.906,12.069-26.906,26.904v10.478h-9.093V91.027c0-19.849,16.149-35.997,35.998-35.997h15.723
				c19.85,0,35.999,16.148,35.999,35.997V101.505z"/>
		</g>
		<g>
			<g>
				<g>
					<path fill="#AEF4DB" d="M157.797,55.03H151.8c-19.849,0-35.998,16.148-35.998,35.997v10.478h5.997V91.027
						C121.798,71.178,137.948,55.03,157.797,55.03z"/>
				</g>
			</g>
			<g>
				<g>
					<path fill="#AEF4DB" d="M173.52,64.123h-5.997c14.835,0,26.906,12.069,26.906,26.904v10.478h5.997V91.027
						C200.426,76.192,188.355,64.123,173.52,64.123z"/>
				</g>
			</g>
		</g>
		<g>
			<path fill="#9AE8CE" d="M221.826,176.906c0-7.697-6.234-13.935-13.929-13.935c-7.483,0-13.568,5.89-13.912,13.286l-0.042-0.019
				l-0.024,0.009c-0.343-7.388-6.423-13.275-13.9-13.275c-7.696,0-13.935,6.238-13.935,13.935c0,3.423,1.237,6.555,3.292,8.984
				h-0.006l24.585,27.691l24.591-27.691v-0.005C220.589,183.461,221.826,180.33,221.826,176.906z"/>
		</g>
		<g>
			<path fill="#FE6F80" d="M169.37,185.89h0.006c-2.054-2.429-3.292-5.56-3.292-8.984c0-7.697,6.239-13.935,13.935-13.935
				c7.477,0,13.556,5.887,13.9,13.275l0.024-0.009l0.042,0.019c0.326-6.962,5.766-12.531,12.639-13.163
				c1.847-3.351,2.942-7.178,2.942-11.277c0-12.96-10.502-23.469-23.472-23.469c-12.585,0-22.839,9.922-23.413,22.376l-0.077-0.032
				l-0.03,0.016c-0.592-12.447-10.827-22.359-23.419-22.359c-12.965,0-23.466,10.509-23.466,23.469
				c0,5.766,2.084,11.041,5.535,15.131h-0.006l41.409,46.633l15.664-17.64L169.37,185.89z"/>
		</g>
		<g>
			<path fill="#AEF4DB" d="M178.072,185.89h0.006c-2.054-2.429-3.292-5.56-3.292-8.984c0-6.171,4.043-11.344,9.59-13.176
				c-1.373-0.456-2.824-0.759-4.357-0.759c-7.696,0-13.935,6.238-13.935,13.935c0,3.423,1.237,6.555,3.292,8.984h-0.006
				l24.585,27.691l4.351-4.9L178.072,185.89z"/>
		</g>
		<g>
			<path fill="#FFA1AA" d="M134.147,166.948h0.006c-3.451-4.091-5.535-9.365-5.535-15.131c0-10.703,7.21-19.633,17.008-22.456
				c-2.066-0.596-4.209-1.014-6.47-1.014c-12.965,0-23.466,10.509-23.466,23.469c0,5.766,2.084,11.041,5.535,15.131h-0.006
				l41.409,46.633l6.464-7.279L134.147,166.948z"/>
		</g>
	</g>
	<g>
		<g>
			<path fill="#161616" d="M271.239,244.97H81.36c-2.315,0-4.259-1.739-4.517-4.039L61.244,102.013
				c-0.145-1.286,0.264-2.574,1.128-3.537c0.861-0.965,2.096-1.517,3.389-1.517h155.805c2.51,0,4.546,2.035,4.546,4.546
				c0,2.512-2.036,4.546-4.546,4.546H70.846l14.578,129.825h180.73l-14.578-129.825h-9.865c-2.51,0-4.546-2.035-4.546-4.546
				c0-2.511,2.036-4.546,4.546-4.546h13.929c2.315,0,4.259,1.739,4.517,4.039l15.599,138.918c0.145,1.286-0.263,2.574-1.128,3.537
				C273.767,244.418,272.533,244.97,271.239,244.97z"/>
		</g>
		<g>
			<path fill="#161616" d="M81.36,244.97c-38.307,0-55.608-24.153-56.324-25.181c-0.814-1.162-1.036-2.637-0.604-3.987l4.86-15.193
				c0.767-2.39,3.318-3.71,5.716-2.945c2.392,0.765,3.709,3.324,2.945,5.716l-4.12,12.883c4.085,4.74,17.532,17.841,42.425,19.453
				L63.615,123.139l-19.47,60.883c-0.767,2.392-3.312,3.718-5.716,2.945c-2.392-0.765-3.709-3.324-2.945-5.716l25.947-81.132
				c0.654-2.044,2.628-3.345,4.78-3.139c2.134,0.212,3.83,1.886,4.067,4.017l15.599,138.918c0.145,1.286-0.263,2.574-1.128,3.537
				C83.888,244.418,82.653,244.97,81.36,244.97z"/>
		</g>
		<g>
			<path fill="#161616" d="M203.522,101.505h-9.093V91.027c0-14.835-12.07-26.904-26.906-26.904H151.8
				c-14.835,0-26.906,12.069-26.906,26.904v10.478h-9.093V91.027c0-19.849,16.149-35.997,35.998-35.997h15.723
				c19.85,0,35.999,16.148,35.999,35.997V101.505z"/>
		</g>
		<g>
			<path fill="#161616" d="M193.695,218.128L193.695,218.128c-1.299,0-2.537-0.556-3.401-1.527l-24.585-27.692
				c-2.883-3.419-4.431-7.65-4.431-12.003c0-10.191,8.291-18.482,18.482-18.482c5.556,0,10.546,2.445,13.935,6.339
				c3.389-3.894,8.385-6.339,13.941-6.339c10.188,0,18.476,8.291,18.476,18.482c0,4.35-1.545,8.579-4.348,11.908l-24.668,27.786
				C196.232,217.571,194.994,218.128,193.695,218.128z M179.76,167.518c-5.177,0-9.389,4.212-9.389,9.389
				c0,2.242,0.767,4.333,2.217,6.047l21.107,23.78l21.19-23.863c1.35-1.604,2.134-3.755,2.134-5.964
				c0-5.177-4.209-9.389-9.383-9.389c-5.02,0-9.137,3.931-9.371,8.949c-0.068,1.514-0.888,2.893-2.184,3.678
				c-1.131,0.685-2.498,0.838-3.733,0.445c-0.414-0.126-0.811-0.309-1.178-0.552c-1.214-0.801-1.986-2.128-2.051-3.58
				C188.885,171.444,184.774,167.518,179.76,167.518z"/>
		</g>
		<g>
			<path fill="#161616" d="M162.367,218.128c-1.299,0-2.537-0.556-3.401-1.527l-41.409-46.634c-4.33-5.141-6.675-11.556-6.675-18.15
				c0-15.448,12.568-28.016,28.013-28.016c9.809,0,18.467,5.038,23.469,12.723c4.996-7.687,13.651-12.723,23.469-12.723
				c15.451,0,28.019,12.568,28.019,28.016c0,4.651-1.214,9.31-3.507,13.472c-0.728,1.32-2.063,2.195-3.564,2.332
				c-4.638,0.426-8.3,4.23-8.516,8.849c-0.071,1.513-0.888,2.89-2.184,3.675c-1.131,0.685-2.489,0.838-3.735,0.445
				c-0.411-0.126-0.808-0.309-1.175-0.552c-1.214-0.801-1.986-2.128-2.051-3.58c-0.234-5.014-4.345-8.941-9.359-8.941
				c-5.177,0-9.389,4.212-9.389,9.389c0,2.242,0.767,4.333,2.217,6.047l-0.003,0.001l8.847,9.969c1.527,1.721,1.527,4.314,0,6.037
				l-15.664,17.64C164.904,217.571,163.667,218.128,162.367,218.128z M138.895,132.894c-10.434,0-18.92,8.489-18.92,18.923
				c0,4.455,1.586,8.788,4.463,12.199l37.928,42.718l9.584-10.793l-6.242-7.033c-0.024-0.028-0.05-0.058-0.074-0.086
				c-2.809-3.331-4.357-7.563-4.357-11.915c0-10.191,8.291-18.482,18.482-18.482c5.579,0,10.588,2.466,13.977,6.389
				c2.475-2.821,5.793-4.893,9.564-5.807c0.968-2.303,1.459-4.712,1.459-7.19c0-10.434-8.489-18.923-18.926-18.923
				c-10.117,0-18.405,7.924-18.872,18.039c-0.068,1.484-0.858,2.843-2.116,3.636c-1.116,0.703-2.471,0.879-3.715,0.514
				c-0.352-0.096-0.696-0.235-1.021-0.417c-1.37-0.765-2.261-2.175-2.335-3.743C157.291,140.813,149,132.894,138.895,132.894z"/>
		</g>
	</g>
</g>
</svg>
