<svg xmlns="http://www.w3.org/2000/svg" viewBox="0 0 48 48"><defs><style>.cls-1{fill:#201602;}</style></defs><title>Asset 50ldpi</title><g id="Layer_2" data-name="Layer 2"><g id="layer_1-2" data-name="layer 1"><path class="cls-1" d="M47,48H1a1,1,0,0,1-1-1V1A1,1,0,0,1,1,0H47a1,1,0,0,1,1,1V47A1,1,0,0,1,47,48ZM2,46H46V2H2Z"/><path class="cls-1" d="M38,43a1,1,0,0,1-.45-.11L24,36.12,10.45,42.89A1,1,0,0,1,9,42V9a1,1,0,0,1,1-1H38a1,1,0,0,1,1,1V42a1,1,0,0,1-.47.85A1,1,0,0,1,38,43ZM24,34a1,1,0,0,1,.45.11L37,40.38V10H11V40.38l12.55-6.27A1,1,0,0,1,24,34Z"/><rect class="cls-1" x="4" y="4" width="2" height="2"/><rect class="cls-1" x="8" y="4" width="2" height="2"/><rect class="cls-1" x="12" y="4" width="2" height="2"/><rect class="cls-1" x="40" y="8" width="7" height="2"/><rect class="cls-1" x="1" y="8" width="7" height="2"/><path class="cls-1" d="M24,31a1,1,0,0,1-.69-.28c-.06,0-5.56-5.31-7.7-7.4A5.34,5.34,0,0,1,14,19.51a5.48,5.48,0,0,1,1.6-3.92,5.43,5.43,0,0,1,7.69,0c.23.23.48.52.71.79.23-.27.48-.56.71-.79A5.3,5.3,0,0,1,28.49,14,5.46,5.46,0,0,1,34,19.51a5.34,5.34,0,0,1-1.61,3.81c-2.13,2.09-7.64,7.35-7.7,7.4A1,1,0,0,1,24,31ZM19.45,16A3.45,3.45,0,0,0,16,19.49a3.39,3.39,0,0,0,1,2.4c1.67,1.64,5.44,5.24,7,6.73,1.55-1.49,5.32-5.09,7-6.73a3.39,3.39,0,0,0,1-2.4A3.43,3.43,0,0,0,31,17a3.48,3.48,0,0,0-2.48-1,3.37,3.37,0,0,0-2.37,1c-.56.57-1.33,1.59-1.34,1.6a1,1,0,0,1-.8.4h0a1,1,0,0,1-.8-.4s-.78-1-1.33-1.6a3.41,3.41,0,0,0-2.38-1Z"/></g></g></svg>